<?xml version="1.0" encoding="utf-8"?>
<!-- Designed by Vexels.com - 2020 All Rights Reserved - https://vexels.com/terms-and-conditions/  -->
<svg version="1.1" id="Layer_1" xmlns="http://www.w3.org/2000/svg" xmlns:xlink="http://www.w3.org/1999/xlink" x="0px" y="0px"
	 viewBox="0 0 1200 1200" enable-background="new 0 0 1200 1200" xml:space="preserve">
<g>
	<path fill="#202020" stroke="#202020" stroke-width="0.5109" stroke-miterlimit="10" d="M1001.246,70.879
		c-2.947-9.296-7.848-17.817-17.103-19.177c-31.839-4.679-87.596,3.39-128.912,4.562c-103.479,2.935-206.966,5.608-310.432,8.967
		C491,66.977,437.206,68.907,383.426,71.151C333.711,73.226,213.106,80.055,211,91.819c-2.027,11.336-5.386,50.187-5.704,61.7
		c-2.022,72.791-4.479,145.582-5.327,218.389c-2.071,177.585-3.762,355.176-4.733,532.77c-0.378,69.323,1.878,165.96,3.291,235.279
		c0.046,2.278,2.441,2.367,5.247,2.313c-0.395,1.183-0.249,2.068,1.62,2.264c23.64,2.484,76.69,6.032,100.427,5.699
		c146.304-2.044,292.598-4.945,438.9-7.241c63.279-0.994,126.58-0.711,189.848-2.132c17.865-0.4,55.625,1.265,55.853-14.636
		c0.74-51.705-0.932-161.984,0.526-213.657c4.208-148.948,11.468-297.834,13.824-446.804c1.043-65.917,0.421-131.86-0.485-197.775
		c-0.594-43.196,0.29-86.401-0.6-129.595C1003.344,121.675,1007.683,91.181,1001.246,70.879z M964.873,643.185
		c-2.658,154.341-5.381,308.945-8.071,464.307c0.086-0.016-1.203,0.455-2.501,0.481c-202.735,4.056-405.473,7.978-608.204,12.199
		c-33.48,0.697-119.812,0.774-119.534-6.535c1.453-38.078,1.442-93.23,1.817-131.33c1.91-193.946,2.879-387.903,5.439-581.841
		c1.265-95.847,5.247-191.658,8.038-288.92c12.057-1.597,22.131-3.696,32.283-4.16c127.103-5.813,254.18-12.432,381.338-16.674
		c90.429-3.015,180.974-2.348,271.447-4.336c9.623-0.212,30.888,2.048,48.263,2.19c-0.711,7.542-1.514,15.982-2.453,25.638
		c-0.066,0.677,0.005,1.362-0.004,2.042c-1.203,93.189-2.121,186.381-3.667,279.564
		C967.696,478.244,966.294,560.677,964.873,643.185"/>
	<path fill="#202020" stroke="#202020" stroke-width="0.5109" stroke-miterlimit="10" d="M897.761,184.587
		c1.455-28.523-10.302-36.733-39.31-34.148c-6.086,0.543-12.219,0.633-18.334,0.724c-175.883,2.623-351.578,8.597-526.395,29.832
		c-3.75,0.455-9.665,4.287-10.133,7.246c-4.751,30.059-9.451,60.196-11.795,90.494c-0.386,4.994,10.614,15.475,16.497,15.583
		c32.687,0.596,65.411-1.643,98.134-2.149c137.346-2.127,274.697-3.981,412.047-5.944c3.398-0.048,62.296-3.588,64.767-5.153
		C889.743,276.955,896.423,210.762,897.761,184.587z M804.598,255.234c-37.391,0.978-74.837,1.023-112.154,3.219
		c-122.545,7.214-246.069-3.055-367.34,20.239c0-26.689,0-53.546,0-82.185c181.693-5.957,361.395-11.847,544.658-17.855
		c-3.534,18.041-6.442,31.79-8.87,45.624c-1.87,10.667-4.464,21.473-4.565,32.117C838.188,255.363,810.418,255.082,804.598,255.234z
		"/>
	<path fill="#202020" stroke="#202020" stroke-width="0.5109" stroke-miterlimit="10" d="M475.126,915.756
		c19.817,2.254,39.644,5.773,58.948,10.757c16.68,4.307,22.984,17.863,23.101,34.4c0.143,20.367-10.425,34.602-29.056,39.497
		c-18.852,4.953-38.766,7.253-58.308,7.906c-43.435,1.452-86.952,2.175-130.393,1.223c-32.358-0.709-44.982-10.93-46.193-31.938
		c-1.926-33.417,10.306-50.833,41.822-56.952c15.926-3.092,32.273-4.255,48.489-5.538
		C399.073,913.882,460.372,914.078,475.126,915.756z M511.954,976.482c3.692-0.379,7.15-3.048,10.556-6.214
		c4.714-4.38,4.935-11.849,0.226-16.234c-3.038-2.828-6.167-5.252-9.667-6.048c-59.405-13.518-118.971-5.98-178.329,1.225
		c-4.626,0.561-10.536,8.687-11.868,14.249c-2.334,9.756,2.04,17.427,13.809,17.463
		C362.522,981.003,479.518,979.815,511.954,976.482z"/>
	<path fill="#202020" stroke="#202020" stroke-width="0.5109" stroke-miterlimit="10" d="M521.383,535.931
		c-21.695,0.773-36.569-10.593-45.1-28.908c-7.856-16.865-4.943-33.392,9.464-46.825c5.359-4.997,9.8-11,15.277-15.846
		c18.637-16.485,41.892-18.669,58.786-5.93c19.492,14.699,25.979,40.376,15.807,62.56
		C566.223,521.471,543.805,535.914,521.383,535.931z M553.854,479.378c0.711-4.17-0.809-8.43-3.767-11.453
		c-3.947-4.034-9.052-9.072-15.08-10.704c-11.977-3.243-38.289,19.454-38.856,30.367c-0.645,12.415,11.058,22.703,25.603,22.508
		C536.305,509.901,550.72,497.753,553.854,479.378z"/>
	<path fill="#202020" stroke="#202020" stroke-width="0.5109" stroke-miterlimit="10" d="M405.132,469.561
		c0.533,29.615-34.632,63.072-66.431,63.204c-25.086,0.104-46.006-24.427-46.743-54.812c-0.509-21.017,39.166-55.042,64.464-55.285
		C383.308,422.411,404.653,442.959,405.132,469.561z M326.051,466.715c-8.499,5.821-9.989,17.937-2.97,25.477
		c4.523,4.858,8.823,8.586,13.23,8.718c10.734,0.321,23.603-8.402,31.979-16.791c4.462-4.469,4.494-18.391,0.726-24.425
		c-2.921-4.677-16.052-6.984-22.494-4.581C339.596,457.697,333.234,461.795,326.051,466.715z"/>
	<path fill="#202020" stroke="#202020" stroke-width="0.5109" stroke-miterlimit="10" d="M878.175,970.092
		c0.37,29.458-21.387,51.785-50.655,51.98c-29.961,0.2-55.78-23.147-55.813-50.469c-0.035-28.922,25.204-54.44,54.041-54.64
		C855.687,916.756,877.786,939.151,878.175,970.092z M842.441,982.4c4.008-3.707,6.134-9.138,5.31-14.535
		c-3.021-19.792-14.468-32.278-26.904-28.699c-9.385,2.7-18.778,15.73-22.199,26.103c-4.008,12.152,15.158,29.511,29.152,26.317
		C833.422,990.303,838.389,986.148,842.441,982.4z"/>
	<path fill="#202020" stroke="#202020" stroke-width="0.5109" stroke-miterlimit="10" d="M820.028,757.914
		c36.555,0.426,57.847,20.195,57.82,53.686c-0.022,27.561-22.658,46.118-55.64,45.614c-27.234-0.417-54.727-24.945-54.007-48.182
		C769.09,780.34,792.156,757.59,820.028,757.914z M849.338,810.595c-0.479-15.277-15.442-33.28-27.844-28.691
		c-4.909,1.816-9.005,5.826-12.844,10.534c-7.423,9.105-6.231,22.543,2.876,29.964c4.105,3.345,8.344,6.048,12.947,7.009
		C834.581,831.522,849.919,828.422,849.338,810.595z"/>
	<path fill="#202020" stroke="#202020" stroke-width="0.5109" stroke-miterlimit="10" d="M733.066,476.946
		c-0.684,28.953-32.372,59.755-60.194,58.51c-23.857-1.068-46.568-28.82-46.026-56.243c0.503-25.44,30.968-49.543,61.031-48.286
		C712.543,431.958,733.622,453.425,733.066,476.946z M682.32,459.031c-11.45,3.665-28.127,4.253-30.797,23.138
		c-1.693,11.975,12.183,25.955,23.536,25.607c13.436-0.412,31.153-17.244,30.9-30.184
		C705.697,464.204,697.676,458.635,682.32,459.031z"/>
	<path fill="#202020" stroke="#202020" stroke-width="0.5109" stroke-miterlimit="10" d="M445.317,663.644
		c-0.259-29.104,24.62-49.903,60.017-50.172c24.909-0.189,42.842,18.398,42.664,44.22c-0.199,28.776-24.956,53.61-53.372,53.538
		C469.459,711.167,445.535,688.078,445.317,663.644z M493.799,637.432c-13.727,3.637-25.167,3.821-23.404,23.453
		c1.199,13.351,13.502,23.405,26.815,21.836c13.933-1.641,25.243-9.157,22.253-24.537c-1.153-5.93-5.955-11.15-10.777-16.366
		C504.909,637.731,499.18,636.006,493.799,637.432z"/>
	<path fill="#202020" stroke="#202020" stroke-width="0.5109" stroke-miterlimit="10" d="M829.114,597.688
		c26.387-0.191,46.9,17.243,47.07,40.007c0.212,28.318-21.903,50.951-49.622,50.784c-22.871-0.138-48.406-23.08-48.544-43.616
		C777.849,619.741,801.518,597.888,829.114,597.688z M817.52,660.077c5.231,5.108,13.66,4.838,18.506-0.637
		c6.01-6.789,10.836-12.26,12.474-18.56c1.164-4.476-11.04-17.911-16.336-17.451c-11.204,0.974-29.326,1.066-28.619,17.77
		C803.795,647.118,810.05,652.783,817.52,660.077z"/>
	<path fill="#202020" stroke="#202020" stroke-width="0.5109" stroke-miterlimit="10" d="M837.192,520.964
		c-25.863,0.354-47.829-24.152-49.404-55.115c-0.864-16.971,35.632-43.964,60.686-44.886c22.739-0.836,49.691,25.533,49.405,48.339
		C897.558,494.83,867.344,520.552,837.192,520.964z M852.967,486.741l1.827-1.885c8.739-9.018,7.641-23.785-2.485-31.212
		c-3.048-2.236-6.186-3.888-9.501-4.4c-12.149-1.879-26.968,2.544-25.733,21.798c0.231,3.594,0.812,6.774,1.86,9.585
		C824.107,494.487,842.671,497.364,852.967,486.741z"/>
	<path fill="#202020" stroke="#202020" stroke-width="0.5109" stroke-miterlimit="10" d="M657.354,699.634
		c-28.071-0.203-46.576-19.086-46.342-47.291c0.247-29.971,28.125-53.638,61.898-52.549c21.3,0.687,38.526,22.084,38.556,47.895
		C711.501,677.003,687.697,699.854,657.354,699.634z M653.699,631.741l-8.377,7.365c-5.308,4.666-6.13,12.139-2.211,17.509
		c4.39,6.015,8.836,11.755,14.217,12.834c11.98,2.403,24.337-5.796,22.435-21.252c-0.54-4.39-3.177-8.521-6.827-13.96
		C668.607,627.787,659.532,626.613,653.699,631.741z"/>
	<path fill="#202020" stroke="#202020" stroke-width="0.5109" stroke-miterlimit="10" d="M333.401,707.403
		c-20.973-0.479-42.529-28.615-41.588-54.285c0.872-23.813,28.407-47.27,54.974-46.832c22.294,0.367,41.1,21.914,40.155,46.008
		C385.925,678.211,357.04,707.942,333.401,707.403z M358.924,660.575c6.346-5.928,5.365-16.316-1.989-20.935
		c-7.286-4.576-12.573-7.799-16.57-6.626c-7.09,2.082-13.345,7.007-19.53,12.171c-5.601,4.677-6.339,13.015-1.665,18.619
		l6.932,8.311c4.867,5.836,13.637,6.383,19.19,1.195C349.39,669.482,353.81,665.353,358.924,660.575z"/>
	<path fill="#202020" stroke="#202020" stroke-width="0.5109" stroke-miterlimit="10" d="M514.549,759.944
		c29.123,0.211,46.798,30.957,36.069,62.744c-7.205,21.346-35.81,41.696-57.016,39.475c-20.597-2.158-30.939-16.975-34.836-34.956
		C453.498,802.906,475.744,758.218,514.549,759.944z M526.581,817.531c8.811-22.312-24.164-34.233-38.941-21.057
		c-5.93,5.287-9.67,15.116-7.819,22.888c1.973,8.283,9.555,14.721,17.995,15.489C509.401,835.906,522.293,828.388,526.581,817.531z"
		/>
	<path fill="#202020" stroke="#202020" stroke-width="0.5109" stroke-miterlimit="10" d="M618.793,975.124
		c-10.905-21.615-2.245-48.665,19.75-58.782c24.551-11.294,48.441-7.312,66.336,12.249c18.783,20.531,18.598,53.145-0.396,69.851
		c-20.466,18-51.477,22.334-68.198,3.721C629.185,994.259,623.719,984.888,618.793,975.124z M684.047,976.528
		c8.11-5.774,12.205-16.142,4.894-25.026c-11.903-14.464-24.6-17.06-32.701-12.567c-2.312,1.282-5.743,3.572-9.486,6.193
		c-23.24,16.269,13.093,40.449,30.654,34.748C679.792,979.102,682.042,977.956,684.047,976.528z"/>
	<path fill="#202020" stroke="#202020" stroke-width="0.5109" stroke-miterlimit="10" d="M345.486,862.661
		c-21.759-0.193-49.244-27.752-49.494-49.626c-0.227-19.918,31.734-42.272,60.825-42.541c23.242-0.215,44.185,20.356,44.283,43.496
		C401.194,836.53,371.076,862.888,345.486,862.661z M328.562,798.65c-6.306,3.384-8.554,12.487-4.892,19.383
		c2.431,4.577,4.704,8.107,7.569,8.983c9.752,2.978,21.227,2.587,30.951-0.646c2.111-0.702,3.643-3.79,5.002-7.588
		c2.435-6.806-0.397-14.653-6.227-17.461c-6.408-3.086-12.829-6.003-19.42-6.695C337.514,794.202,333.305,796.105,328.562,798.65z"
		/>
	<path fill="#202020" stroke="#202020" stroke-width="0.5109" stroke-miterlimit="10" d="M664.705,857.959
		c-27.176-0.148-49.636-25.98-50.605-58.205c-0.584-19.425,25.499-40.017,50.486-39.857c23.278,0.149,44.993,27.53,45.591,57.487
		C710.633,840.251,690.631,858.099,664.705,857.959z M644.552,791.836c-6.914,3.254-9.938,11.628-6.701,18.551
		c6.349,13.577,15.348,22.219,32.578,18.534c3.426-0.733,7.184-17.596,4.717-24.968C668.788,784.955,657.66,785.666,644.552,791.836
		z"/>
</g>
</svg>
